<?xml version="1.0" encoding="UTF-8" standalone="no"?><svg xmlns="http://www.w3.org/2000/svg" xmlns:xlink= "http://www.w3.org/1999/xlink" width="600" height="390" aria-label="A chart." style="overflow: hidden;"><defs id="_ABSTRACT_RENDERER_ID_19"></defs><rect x="0" y="0" width="600" height="390" stroke="none" stroke-width="0" fill="#ffffff"></rect><g><text text-anchor="start" x="115" y="52.05" font-family="Arial" font-size="13" font-weight="bold" stroke="none" stroke-width="0" fill="#000000">MZT Tokenomics</text><rect x="115" y="41" width="371" height="13" stroke="none" stroke-width="0" fill-opacity="0" fill="#ffffff"></rect></g><g><rect x="365" y="75" width="121" height="72" stroke="none" stroke-width="0" fill-opacity="0" fill="#ffffff"></rect><g column-id="Ecosystem (Locked)"><rect x="365" y="75" width="121" height="30" stroke="none" stroke-width="0" fill-opacity="0" fill="#ffffff"></rect><g><text text-anchor="start" x="383" y="86.05" font-family="Arial" font-size="13" stroke="none" stroke-width="0" fill="#222222">Ecosystem</text><text text-anchor="start" x="383" y="103.05" font-family="Arial" font-size="13" stroke="none" stroke-width="0" fill="#222222">(Locked)</text></g><circle cx="371.5" cy="81.5" r="6.5" stroke="none" stroke-width="0" fill="#3366cc"></circle></g><g column-id="Unlocked supply"><rect x="365" y="113" width="121" height="13" stroke="none" stroke-width="0" fill-opacity="0" fill="#ffffff"></rect><g><text text-anchor="start" x="383" y="124.05" font-family="Arial" font-size="13" stroke="none" stroke-width="0" fill="#222222">Unlocked supply</text></g><circle cx="371.5" cy="119.5" r="6.5" stroke="none" stroke-width="0" fill="#dc3912"></circle></g><g column-id="Burn"><rect x="365" y="134" width="121" height="13" stroke="none" stroke-width="0" fill-opacity="0" fill="#ffffff"></rect><g><text text-anchor="start" x="383" y="145.05" font-family="Arial" font-size="13" stroke="none" stroke-width="0" fill="#222222">Burn</text></g><circle cx="371.5" cy="140.5" r="6.5" stroke="none" stroke-width="0" fill="#ff9900"></circle></g></g><g><path d="M230,184.6L230,207.4L194.77206264125599,120.66364571388199L194.77206264125599,97.863645713882" stroke="#bf7300" stroke-width="1" fill="#bf7300"></path><path d="M230,184.6L194.77206264125599,97.863645713882A114,91.2,0,0,1,230,93.39999999999999L230,184.6A0,0,0,0,0,230,184.6" stroke="#ff9900" stroke-width="1" fill="#ff9900"></path><text text-anchor="start" x="212.08644967509048" y="118.68980613557386" font-family="Arial" font-size="13" stroke="none" stroke-width="0" fill="#ffffff">5</text></g><g><path d="M130.10103847499954,228.53593507807642L130.10103847499954,251.33593507807643A114,91.2,0,0,1,116,207.4L116,184.6A114,91.2,0,0,0,130.10103847499954,228.53593507807642" stroke="#a52b0e" stroke-width="1" fill="#a52b0e"></path><path d="M230,184.6L230,207.4L130.10103847499954,251.33593507807643L130.10103847499954,228.53593507807642" stroke="#a52b0e" stroke-width="1" fill="#a52b0e"></path><path d="M230,184.6L130.10103847499954,228.53593507807642A114,91.2,0,0,1,194.77206264125599,97.863645713882L230,184.6A0,0,0,0,0,230,184.6" stroke="#dc3912" stroke-width="1" fill="#dc3912"></path><text text-anchor="start" x="138.14332455903963" y="163.13716909831933" font-family="Arial" font-size="13" stroke="none" stroke-width="0" fill="#ffffff">28</text></g><g><path d="M344,184.6L344,207.4A114,91.2,0,0,1,130.10103847499954,251.33593507807643L130.10103847499954,228.53593507807642A114,91.2,0,0,0,344,184.6" stroke="#264d99" stroke-width="1" fill="#264d99"></path><path d="M230,184.6L230,93.39999999999999A114,91.2,0,1,1,130.10103847499954,228.53593507807642L230,184.6A0,0,0,1,0,230,184.6" stroke="#3366cc" stroke-width="1" fill="#3366cc"></path><text text-anchor="start" x="301.0132630228525" y="224.87184914723218" font-family="Arial" font-size="13" stroke="none" stroke-width="0" fill="#ffffff">67</text></g><g></g></svg>