<?xml version="1.0" encoding="UTF-8" standalone="no"?><svg xmlns="http://www.w3.org/2000/svg" xmlns:xlink= "http://www.w3.org/1999/xlink" width="600" height="390" aria-label="A chart." style="overflow: hidden;"><defs id="_ABSTRACT_RENDERER_ID_3"><filter id="_ABSTRACT_RENDERER_ID_4"><feGaussianBlur in="SourceAlpha" stdDeviation="2"></feGaussianBlur><feOffset dx="1" dy="1"></feOffset><feComponentTransfer><feFuncA type="linear" slope="0.1"></feFuncA></feComponentTransfer><feMerge><feMergeNode></feMergeNode><feMergeNode in="SourceGraphic"></feMergeNode></feMerge></filter></defs><rect x="0" y="0" width="600" height="390" stroke="none" stroke-width="0" fill="#ffffff"></rect><g><text text-anchor="start" x="115" y="52.05" font-family="Arial" font-size="13" font-weight="bold" stroke="none" stroke-width="0" fill="#000000">PMZ Tokenomics</text><rect x="115" y="41" width="371" height="13" stroke="none" stroke-width="0" fill-opacity="0" fill="#ffffff"></rect></g><g><rect x="365" y="75" width="121" height="224" stroke="none" stroke-width="0" fill-opacity="0" fill="#ffffff"></rect><g column-id="Presale(Fair launch)"><rect x="365" y="75" width="121" height="30" stroke="none" stroke-width="0" fill-opacity="0" fill="#ffffff"></rect><g><text text-anchor="start" x="383" y="86.05" font-family="Arial" font-size="13" stroke="none" stroke-width="0" fill="#222222">Presale(Fair</text><text text-anchor="start" x="383" y="103.05" font-family="Arial" font-size="13" stroke="none" stroke-width="0" fill="#222222">launch)</text></g><circle cx="371.5" cy="81.5" r="6.5" stroke="none" stroke-width="0" fill="#3366cc"></circle></g><g column-id="PCS Liquidity"><rect x="365" y="113" width="121" height="13" stroke="none" stroke-width="0" fill-opacity="0" fill="#ffffff"></rect><g><text text-anchor="start" x="383" y="124.05" font-family="Arial" font-size="13" stroke="none" stroke-width="0" fill="#222222">PCS Liquidity</text></g><circle cx="371.5" cy="119.5" r="6.5" stroke="none" stroke-width="0" fill="#dc3912"></circle></g><g column-id="Marketing"><rect x="365" y="134" width="121" height="13" stroke="none" stroke-width="0" fill-opacity="0" fill="#ffffff"></rect><g><text text-anchor="start" x="383" y="145.05" font-family="Arial" font-size="13" stroke="none" stroke-width="0" fill="#222222">Marketing</text></g><circle cx="371.5" cy="140.5" r="6.5" stroke="none" stroke-width="0" fill="#ff9900"></circle></g><g column-id="Partners and advisors"><rect x="365" y="155" width="121" height="30" stroke="none" stroke-width="0" fill-opacity="0" fill="#ffffff"></rect><g><text text-anchor="start" x="383" y="166.05" font-family="Arial" font-size="13" stroke="none" stroke-width="0" fill="#222222">Partners and</text><text text-anchor="start" x="383" y="183.05" font-family="Arial" font-size="13" stroke="none" stroke-width="0" fill="#222222">advisors</text></g><circle cx="371.5" cy="161.5" r="6.5" stroke="none" stroke-width="0" fill="#109618"></circle></g><g column-id="Developers"><rect x="365" y="193" width="121" height="13" stroke="none" stroke-width="0" fill-opacity="0" fill="#ffffff"></rect><g><text text-anchor="start" x="383" y="204.05" font-family="Arial" font-size="13" stroke="none" stroke-width="0" fill="#222222">Developers</text></g><circle cx="371.5" cy="199.5" r="6.5" stroke="none" stroke-width="0" fill="#990099"></circle></g><g column-id="Ecosystem (rewards and giveaways)"><rect x="365" y="214" width="121" height="47" stroke="none" stroke-width="0" fill-opacity="0" fill="#ffffff"></rect><g><text text-anchor="start" x="383" y="225.05" font-family="Arial" font-size="13" stroke="none" stroke-width="0" fill="#222222">Ecosystem</text><text text-anchor="start" x="383" y="242.05" font-family="Arial" font-size="13" stroke="none" stroke-width="0" fill="#222222">(rewards and</text><text text-anchor="start" x="383" y="259.05" font-family="Arial" font-size="13" stroke="none" stroke-width="0" fill="#222222">giveaways)</text></g><circle cx="371.5" cy="220.5" r="6.5" stroke="none" stroke-width="0" fill="#0099c6"></circle></g><g column-id="Reserves locked for 2 years"><rect x="365" y="269" width="121" height="30" stroke="none" stroke-width="0" fill-opacity="0" fill="#ffffff"></rect><g><text text-anchor="start" x="383" y="280.05" font-family="Arial" font-size="13" stroke="none" stroke-width="0" fill="#222222">Reserves locked</text><text text-anchor="start" x="383" y="297.05" font-family="Arial" font-size="13" stroke="none" stroke-width="0" fill="#222222">for 2 years</text></g><circle cx="371.5" cy="275.5" r="6.5" stroke="none" stroke-width="0" fill="#dd4477"></circle></g></g><g><path d="M344,184.6L344,207.4A114,91.2,0,0,1,302.66633483135064,277.670807741152L302.66633483135064,254.87080774115196A114,91.2,0,0,0,344,184.6" stroke="#264d99" stroke-width="1" fill="#264d99"></path><path d="M230,184.6L230,207.4L302.66633483135064,277.670807741152L302.66633483135064,254.87080774115196" stroke="#264d99" stroke-width="1" fill="#264d99"></path><path d="M230,184.6L230,93.39999999999999A114,91.2,0,0,1,302.66633483135064,254.87080774115196L230,184.6A0,0,0,0,0,230,184.6" stroke="#3366cc" stroke-width="1" fill="#3366cc"></path><text text-anchor="start" x="309.01410252621224" y="165.17358393318483" font-family="Arial" font-size="13" stroke="none" stroke-width="0" fill="#ffffff">39</text></g><g><path d="M230,184.6L230,207.4L139.0514338926029,152.41282579796098L139.0514338926029,129.61282579796097" stroke="#a63359" stroke-width="1" fill="#a63359"></path><path d="M230,184.6L139.0514338926029,129.61282579796097A114,91.2,0,0,1,230,93.39999999999999L230,184.6A0,0,0,0,0,230,184.6" stroke="#dd4477" stroke-width="1" fill="#dd4477"></path><text text-anchor="start" x="178.45021570701212" y="128.40263474313016" font-family="Arial" font-size="13" stroke="none" stroke-width="0" fill="#ffffff">14.7</text></g><g><path d="M230,184.6L230,207.4L117.18832247929781,194.26621663123456L117.18832247929781,171.46621663123454" stroke="#007395" stroke-width="1" fill="#007395"></path><path d="M230,184.6L117.18832247929781,171.46621663123454A114,91.2,0,0,1,139.0514338926029,129.61282579796097L230,184.6A0,0,0,0,0,230,184.6" stroke="#0099c6" stroke-width="1" fill="#0099c6"></path><text text-anchor="start" x="139.46348293841868" y="160.98834402660555" font-family="Arial" font-size="13" stroke="none" stroke-width="0" fill="#ffffff">8</text></g><g><path d="M123.23331291070608,216.56873000144282L123.23331291070608,239.36873000144283A114,91.2,0,0,1,116,207.4L116,184.6A114,91.2,0,0,0,123.23331291070608,216.56873000144282" stroke="#730073" stroke-width="1" fill="#730073"></path><path d="M230,184.6L230,207.4L123.23331291070608,239.36873000144283L123.23331291070608,216.56873000144282" stroke="#730073" stroke-width="1" fill="#730073"></path><path d="M230,184.6L123.23331291070608,216.56873000144282A114,91.2,0,0,1,117.18832247929778,171.46621663123466L230,184.6A0,0,0,0,0,230,184.6" stroke="#990099" stroke-width="1" fill="#990099"></path><text text-anchor="start" x="130.73923731759334" y="197.0998299024582" font-family="Arial" font-size="13" stroke="none" stroke-width="0" fill="#ffffff">8</text></g><g><path d="M136.52545953689844,236.80580985422668L136.52545953689844,259.60580985422666A114,91.2,0,0,1,123.23331291070608,239.36873000144283L123.23331291070608,216.56873000144282A114,91.2,0,0,0,136.52545953689844,236.80580985422668" stroke="#0c7112" stroke-width="1" fill="#0c7112"></path><path d="M230,184.6L230,207.4L136.52545953689844,259.60580985422666L136.52545953689844,236.80580985422668" stroke="#0c7112" stroke-width="1" fill="#0c7112"></path><path d="M230,184.6L136.52545953689844,236.80580985422668A114,91.2,0,0,1,123.23331291070608,216.56873000144282L230,184.6A0,0,0,0,0,230,184.6" stroke="#109618" stroke-width="1" fill="#109618"></path></g><g><path d="M199.5731732174773,272.4915994600489L199.5731732174773,295.29159946004893A114,91.2,0,0,1,136.5254595368985,259.6058098542268L136.5254595368985,236.80580985422674A114,91.2,0,0,0,199.5731732174773,272.4915994600489" stroke="#bf7300" stroke-width="1" fill="#bf7300"></path><path d="M230,184.6L230,207.4L199.5731732174773,295.29159946004893L199.5731732174773,272.4915994600489" stroke="#bf7300" stroke-width="1" fill="#bf7300"></path><path d="M230,184.6L199.5731732174773,272.4915994600489A114,91.2,0,0,1,136.5254595368985,236.80580985422674L230,184.6A0,0,0,0,0,230,184.6" stroke="#ff9900" stroke-width="1" fill="#ff9900"></path><text text-anchor="start" x="171.2923607393695" y="246.28252961771972" font-family="Arial" font-size="13" stroke="none" stroke-width="0" fill="#ffffff">11</text></g><g><path d="M302.66633483135064,254.87080774115196L302.66633483135064,277.670807741152A114,91.2,0,0,1,199.57317321747715,295.2915994600489L199.57317321747715,272.49159946004886A114,91.2,0,0,0,302.66633483135064,254.87080774115196" stroke="#a52b0e" stroke-width="1" fill="#a52b0e"></path><path d="M230,184.6L302.66633483135064,254.87080774115196A114,91.2,0,0,1,199.57317321747715,272.49159946004886L230,184.6A0,0,0,0,0,230,184.6" stroke="#dc3912" stroke-width="1" fill="#dc3912"></path><text text-anchor="start" x="236.22782147087432" y="257.0183151304416" font-family="Arial" font-size="13" stroke="none" stroke-width="0" fill="#ffffff">15.3</text></g><g></g></svg>